<svg xmlns="http://www.w3.org/2000/svg" width="600" height="243.834" viewBox="0 0 600 243.834"><path fill="#ff234f" d="M0 66.526h69.049v69.049H0z"/><path fill="#fbb300" d="M0 0h34.524v66.526H0zM0 135.575h34.524v69.585H0z"/><path d="M365.896 0v205.16h60.662V0h-60.662zm-82.091 243.834h5.957v-20.146h-5.957v20.146z" fill="#7fd6ea"/><path d="M123.216 0H34.524v66.526h88.692V0zM34.524 205.16h103.574v-69.585H34.524v69.585zm241.041-96.542l60.662 60.662V0h-60.662v108.618zm30.065 125.735l5.957 5.957v-16.622h-5.957v10.665zM514.24 0h-55.396v60.82c.788-.063 1.608-.063 2.428-.063h66.526a71.555 71.555 0 0 1 38.97 11.508 54.388 54.388 0 0 0 2.712-17.026C569.48 24.877 544.635 0 514.24 0z" fill="#ff9d03"/><path d="M275.565 205.16h60.662v-35.88l-60.662-60.662v96.542zm30.065 38.674h5.957v-3.524l-5.957-5.957v9.48zM527.798 60.757h-66.526c-.82 0-1.64 0-2.428.063v49.69h55.397c15.197 0 29.006-6.211 39.033-16.238 6.085-6.116 10.783-13.62 13.494-22.007a71.555 71.555 0 0 0-38.97-11.508z" fill="#fc3a05"/><path d="M69.049 135.575h28.345V66.526H69.049v69.05zm97.898 69.585h108.618v-96.542L166.947 0v205.16zm128.017 38.674h10.666v-9.48l-10.666-10.666v20.146zm271.804-171.57c-2.711 8.388-7.41 15.892-13.494 22.008-10.027 10.027-23.836 16.238-39.033 16.238h-55.397v94.587c.788.063 1.608.063 2.428.063h66.526c19.864 0 37.898-8.134 51.015-21.219C591.865 170.857 600 152.791 600 132.958c0-25.412-13.274-47.83-33.232-60.693z" fill="#f7739a"/><path d="M9.774 219.19H7.819l-1.26 2.302h1.355l1.86-2.301zM.41 242.618h12.77v-1.986H2.395v-5.896H12.77v-1.798H2.396v-5.99H13.18v-1.923H.41v17.593zm25.822-1.387c-5.423 0-7.378-3.91-7.41-7.284 0-2.08.758-4.067 2.082-5.391 1.324-1.356 3.153-2.05 5.328-2.05 1.703 0 3.31.537 4.572 1.546l1.293-1.262c-1.671-1.419-3.69-2.144-5.865-2.144-2.774 0-5.107.883-6.779 2.554-1.67 1.671-2.616 4.13-2.616 6.747.031 4.414 2.522 9.112 9.395 9.112 2.365 0 4.477-.725 6.117-2.112l-1.356-1.356c-1.293 1.01-3.058 1.64-4.76 1.64zm18.287-16.585c-6.211 0-9.049 4.824-9.049 9.301 0 4.194 2.365 9.112 9.05 9.112 6.62 0 9.016-4.918 9.048-9.143.032-2.617-.914-5.076-2.585-6.779-1.608-1.64-3.847-2.49-6.464-2.49zm0 16.68c-5.076 0-6.968-3.942-7.062-7.284v-.252c0-2.144.756-4.13 2.08-5.455 1.23-1.292 2.964-1.986 4.982-1.986 2.018 0 3.72.662 4.982 1.923 1.356 1.388 2.144 3.468 2.08 5.707-.062 3.405-1.923 7.346-7.062 7.346zm15.323-16.301h-2.049v17.593h11.918v-1.766h-9.869v-15.827zm13.936 17.593h12.77v-1.986H75.765v-5.896h10.373v-1.798H75.765v-5.99h10.783v-1.923h-12.77v17.593zm35.25-4.225l-10.562-13.368H96.7v17.593h2.05v-14.44l11.224 14.44h1.103v-17.625h-2.05v13.4zm13.274-13.368l-7.883 17.593h2.176l1.64-3.626h11.035l1.64 3.626h2.206l-7.882-17.593h-2.932zm-3.311 12.17l4.761-10.91 4.76 10.91h-9.521zm13.495-10.468h6.085v15.891h2.049v-15.89h6.054v-1.703h-14.188v1.702zm18.003 15.891h1.986v-17.593h-1.986v17.593zm15.764-17.972c-6.242 0-9.08 4.824-9.08 9.301 0 4.194 2.396 9.112 9.08 9.112 6.59 0 8.986-4.918 9.05-9.143.03-2.617-.915-5.076-2.618-6.779-1.608-1.64-3.815-2.49-6.432-2.49zm0 16.68c-5.076 0-7-3.942-7.094-7.284v-.252c0-2.144.757-4.13 2.081-5.455 1.261-1.292 2.996-1.986 5.013-1.986 2.018 0 3.72.662 4.95 1.923 1.388 1.388 2.144 3.468 2.113 5.707-.063 3.405-1.955 7.346-7.063 7.346zm25.854-2.933l-10.562-13.368h-1.734v17.593h2.018v-14.44l11.224 14.44h1.104v-17.625h-2.05v13.4zm13.274-13.368l-7.882 17.593h2.207l1.64-3.626h11.034l1.608 3.626h2.208l-7.883-17.593h-2.932zm-3.28 12.17l4.762-10.91 4.76 10.91h-9.521zm20.054-12.17h-2.018v17.593h11.886v-1.766h-9.868v-15.827zm13.935 17.593h12.77v-1.986h-10.752v-5.896h10.373v-1.798h-10.373v-5.99h10.752v-1.923h-12.77v17.593zm29.165-17.593h-6.747v17.593h6.747c2.68 0 4.824-.82 6.369-2.396 1.576-1.608 2.459-4.005 2.427-6.558-.031-1.987-.63-4.13-2.017-5.802-1.42-1.67-3.595-2.837-6.78-2.837zm4.918 13.81c-1.198 1.23-2.9 1.86-4.918 1.86h-4.73v-13.81h4.73c4.855 0 6.684 3.626 6.779 6.716.063 2.08-.6 3.94-1.86 5.233zm6.621-9.239h1.104l1.577-4.571h-1.703l-.978 4.571zm48.366 5.171h4.887v4.54l-.283.253c-1.514 1.198-2.933 1.702-4.824 1.702-5.455 0-7.378-3.878-7.378-7.189 0-4.634 3.027-7.85 7.378-7.85 1.702 0 3.468.599 4.824 1.608l1.166-1.167a9.274 9.274 0 0 0-5.99-2.175c-6.464 0-9.333 4.792-9.333 9.584 0 2.113.662 8.986 9.333 8.986 2.806 0 5.013-.946 6.841-2.963v-7h-6.62v1.671zm11.099 7.851h12.769v-1.986h-10.752v-5.896h10.374v-1.798h-10.374v-5.99h10.752v-1.923h-12.77v17.593zm9.364-23.426h-1.924l-1.26 2.301h1.355l1.829-2.301zm20.809 19.201l-10.562-13.368h-1.734v17.593h2.018v-14.44l11.224 14.44h1.103v-17.625h-2.05v13.4zm6.968 4.225h2.018v-17.593H373.4v17.593zm6.905 0h12.77v-1.986h-10.752v-5.896h10.373v-1.798h-10.373v-5.99h10.751v-1.923h-12.77v17.593zm30.362-7.378c0 3.752-2.08 6.085-5.454 6.085-3.531 0-5.738-2.333-5.738-6.085v-10.184h-2.018v10.184c0 5.738 4.004 7.788 7.724 7.788 4.698 0 7.504-2.9 7.504-7.788v-10.184h-2.018v10.184zm17.373.6c3.5-.726 4.225-3.248 4.225-5.266 0-2.743-1.892-5.518-6.117-5.55h-4.571c-1.23-.03-2.491-.03-3.752-.03v17.624h2.049v-6.4h4.603l5.58 6.4h2.429l-5.77-6.495 1.324-.284zm-8.166-1.325v-7.693h6.274c2.806 0 4.068 1.986 4.068 3.846 0 1.924-1.262 3.847-4.068 3.847h-6.274zm23.962-2.05c-1.734-.22-4.982-.599-4.982-3.184 0-1.608 1.262-3.342 4.761-3.342 1.892 0 3.72.757 4.761 1.923l1.577-.788c-1.198-1.797-3.374-2.712-6.432-2.712-3.059.032-6.653 1.293-6.653 4.793s2.743 4.54 6.842 5.045c1.261.126 5.14.536 5.14 3.594 0 2.239-1.987 3.657-5.203 3.657-2.585 0-4.666-1.009-5.738-2.774l-1.64.851c1.261 2.428 3.626 3.563 7.315 3.563 1.702 0 7.283-.379 7.283-5.297 0-3.72-2.711-4.792-7.03-5.329zm26.58-7.44h-6.748v17.593h6.747c2.649 0 4.793-.82 6.369-2.396 1.576-1.608 2.46-4.005 2.396-6.558-.031-1.987-.63-4.13-2.018-5.802-1.387-1.67-3.562-2.837-6.747-2.837zm4.918 13.81c-1.198 1.23-2.9 1.86-4.919 1.86h-4.76v-13.81h4.76c4.856 0 6.684 3.626 6.779 6.716.031 2.08-.63 3.94-1.86 5.233zm7.756 3.783h12.77v-1.986h-10.752v-5.896h10.373v-1.798h-10.373v-5.99h10.751v-1.923h-12.77v17.593zm34.745-8.387l-2.018-.599 1.924-.851c1.67-.757 2.017-2.05 2.017-2.995 0-4.13-3.625-4.761-5.801-4.761h-8.292v17.593h8.292c6.4 0 6.4-3.658 6.4-4.856 0-.85-.662-2.963-2.522-3.53zm-10.184-7.504h6.306c2.775 0 3.815 1.892 3.815 3.153 0 .851-.378 2.838-3.815 2.838h-6.306v-5.99zm6.306 14.094h-6.306v-6.495h6.306c1.766 0 4.383 1.072 4.383 3.405 0 1.892-1.735 3.09-4.383 3.09zm20.746-4.982c3.5-.725 4.225-3.247 4.225-5.265 0-2.743-1.892-5.518-6.117-5.55h-4.54c-1.26-.03-2.522-.03-3.783-.03v17.624h2.05v-6.4h4.602l5.613 6.4h2.396l-5.77-6.495 1.324-.284zm-8.166-1.324v-7.693h6.274c2.806 0 4.1 1.986 4.1 3.846 0 1.924-1.262 3.847-4.1 3.847h-6.274zm16.364 8.103h12.769v-1.986h-10.783v-5.896h10.373v-1.798h-10.373v-5.99h10.783v-1.923H542.9v17.593zm24.403-10.153c-1.734-.22-4.981-.599-4.981-3.184 0-1.608 1.26-3.342 4.76-3.342 1.892 0 3.753.757 4.793 1.923l1.545-.788c-1.198-1.797-3.374-2.712-6.432-2.712-3.058.032-6.621 1.293-6.621 4.793s2.711 4.54 6.81 5.045c1.261.126 5.14.536 5.14 3.594 0 2.239-1.987 3.657-5.203 3.657-2.585 0-4.666-1.009-5.738-2.774l-1.64.851c1.261 2.428 3.626 3.563 7.347 3.563 1.702 0 7.251-.379 7.251-5.297 0-3.72-2.711-4.792-7.03-5.329zm10.279-7.44v1.702h6.085v15.891h2.018v-15.89h6.085v-1.703h-14.188z"/></svg>